<mxfile host="app.diagrams.net" agent="Mozilla/5.0 (Macintosh; Intel Mac OS X 10.15; rv:134.0) Gecko/20100101 Firefox/134.0" version="26.0.10">
  <diagram name="Page-1" id="qjGHs6qhx1M-B8GgG7Vw">
    <mxGraphModel dx="2102" dy="2183" grid="1" gridSize="10" guides="1" tooltips="1" connect="1" arrows="1" fold="1" page="1" pageScale="1" pageWidth="850" pageHeight="1100" math="0" shadow="0">
      <root>
        <mxCell id="0" />
        <mxCell id="1" parent="0" />
        <mxCell id="Bp7ZnbDOkuR-MJFEDAv7-1" value="Microservices VPC" style="points=[[0,0],[0.25,0],[0.5,0],[0.75,0],[1,0],[1,0.25],[1,0.5],[1,0.75],[1,1],[0.75,1],[0.5,1],[0.25,1],[0,1],[0,0.75],[0,0.5],[0,0.25]];outlineConnect=0;gradientColor=none;html=1;whiteSpace=wrap;fontSize=12;fontStyle=0;container=1;pointerEvents=0;collapsible=0;recursiveResize=0;shape=mxgraph.aws4.group;grIcon=mxgraph.aws4.group_vpc2;strokeColor=#8C4FFF;fillColor=none;verticalAlign=top;align=left;spacingLeft=30;fontColor=#AAB7B8;dashed=0;" parent="1" vertex="1">
          <mxGeometry x="90" y="-290" width="920" height="810" as="geometry" />
        </mxCell>
        <mxCell id="Bp7ZnbDOkuR-MJFEDAv7-3" value="&lt;font style=&quot;font-size: 14px;&quot;&gt;use1-az1&lt;br&gt;&lt;/font&gt;" style="sketch=0;outlineConnect=0;gradientColor=none;html=1;whiteSpace=wrap;fontSize=12;fontStyle=0;shape=mxgraph.aws4.group;grIcon=mxgraph.aws4.group_availability_zone;strokeColor=#545B64;fillColor=none;verticalAlign=top;align=left;spacingLeft=30;fontColor=#545B64;dashed=1;" parent="Bp7ZnbDOkuR-MJFEDAv7-1" vertex="1">
          <mxGeometry x="90" y="130" width="420" height="640" as="geometry" />
        </mxCell>
        <mxCell id="Bp7ZnbDOkuR-MJFEDAv7-4" value="&lt;div&gt;&lt;font style=&quot;font-size: 14px;&quot;&gt;use1-az2&lt;/font&gt;&lt;/div&gt;&lt;div&gt;&lt;font style=&quot;font-size: 14px;&quot;&gt;&lt;br&gt;&lt;/font&gt;&lt;/div&gt;" style="sketch=0;outlineConnect=0;gradientColor=none;html=1;whiteSpace=wrap;fontSize=12;fontStyle=0;shape=mxgraph.aws4.group;grIcon=mxgraph.aws4.group_availability_zone;strokeColor=#545B64;fillColor=none;verticalAlign=top;align=left;spacingLeft=30;fontColor=#545B64;dashed=1;" parent="Bp7ZnbDOkuR-MJFEDAv7-1" vertex="1">
          <mxGeometry x="110" y="160" width="480" height="620" as="geometry" />
        </mxCell>
        <mxCell id="Bp7ZnbDOkuR-MJFEDAv7-9" value="" style="edgeStyle=orthogonalEdgeStyle;rounded=0;orthogonalLoop=1;jettySize=auto;html=1;" parent="Bp7ZnbDOkuR-MJFEDAv7-1" source="Bp7ZnbDOkuR-MJFEDAv7-5" target="Bp7ZnbDOkuR-MJFEDAv7-8" edge="1">
          <mxGeometry relative="1" as="geometry" />
        </mxCell>
        <mxCell id="Bp7ZnbDOkuR-MJFEDAv7-11" value="" style="edgeStyle=orthogonalEdgeStyle;rounded=0;orthogonalLoop=1;jettySize=auto;html=1;" parent="Bp7ZnbDOkuR-MJFEDAv7-1" source="Bp7ZnbDOkuR-MJFEDAv7-5" target="Bp7ZnbDOkuR-MJFEDAv7-10" edge="1">
          <mxGeometry relative="1" as="geometry" />
        </mxCell>
        <mxCell id="Bp7ZnbDOkuR-MJFEDAv7-16" value="" style="edgeStyle=orthogonalEdgeStyle;rounded=0;orthogonalLoop=1;jettySize=auto;html=1;entryX=0.5;entryY=0;entryDx=0;entryDy=0;entryPerimeter=0;" parent="Bp7ZnbDOkuR-MJFEDAv7-1" source="Bp7ZnbDOkuR-MJFEDAv7-5" target="Bp7ZnbDOkuR-MJFEDAv7-12" edge="1">
          <mxGeometry relative="1" as="geometry">
            <mxPoint x="439" y="435" as="targetPoint" />
          </mxGeometry>
        </mxCell>
        <mxCell id="Bp7ZnbDOkuR-MJFEDAv7-5" value="&lt;div&gt;ECS cluser&lt;/div&gt;&lt;div&gt;&lt;br&gt;&lt;/div&gt;" style="sketch=0;points=[[0,0,0],[0.25,0,0],[0.5,0,0],[0.75,0,0],[1,0,0],[0,1,0],[0.25,1,0],[0.5,1,0],[0.75,1,0],[1,1,0],[0,0.25,0],[0,0.5,0],[0,0.75,0],[1,0.25,0],[1,0.5,0],[1,0.75,0]];outlineConnect=0;fontColor=#232F3E;fillColor=#ED7100;strokeColor=#ffffff;dashed=0;verticalLabelPosition=bottom;verticalAlign=top;align=center;html=1;fontSize=12;fontStyle=0;aspect=fixed;shape=mxgraph.aws4.resourceIcon;resIcon=mxgraph.aws4.ecs;" parent="Bp7ZnbDOkuR-MJFEDAv7-1" vertex="1">
          <mxGeometry x="294" y="400" width="70" height="70" as="geometry" />
        </mxCell>
        <mxCell id="Bp7ZnbDOkuR-MJFEDAv7-8" value="&lt;div&gt;Frontend&lt;/div&gt;&lt;div&gt;&lt;br&gt;&lt;/div&gt;" style="outlineConnect=0;dashed=0;verticalLabelPosition=bottom;verticalAlign=top;align=center;html=1;shape=mxgraph.aws3.ec2_compute_container_3;fillColor=#F58534;gradientColor=none;" parent="Bp7ZnbDOkuR-MJFEDAv7-1" vertex="1">
          <mxGeometry x="200" y="542.75" width="60" height="34.5" as="geometry" />
        </mxCell>
        <mxCell id="Bp7ZnbDOkuR-MJFEDAv7-10" value="A" style="outlineConnect=0;dashed=0;verticalLabelPosition=bottom;verticalAlign=top;align=center;html=1;shape=mxgraph.aws3.ec2_compute_container_3;fillColor=#F58534;gradientColor=none;" parent="Bp7ZnbDOkuR-MJFEDAv7-1" vertex="1">
          <mxGeometry x="299" y="542.75" width="60" height="34.5" as="geometry" />
        </mxCell>
        <mxCell id="Bp7ZnbDOkuR-MJFEDAv7-12" value="B" style="outlineConnect=0;dashed=0;verticalLabelPosition=bottom;verticalAlign=top;align=center;html=1;shape=mxgraph.aws3.ec2_compute_container_3;fillColor=#F58534;gradientColor=none;" parent="Bp7ZnbDOkuR-MJFEDAv7-1" vertex="1">
          <mxGeometry x="380" y="543" width="60" height="34.5" as="geometry" />
        </mxCell>
        <mxCell id="Bp7ZnbDOkuR-MJFEDAv7-26" value="" style="edgeStyle=orthogonalEdgeStyle;rounded=0;orthogonalLoop=1;jettySize=auto;html=1;entryX=0;entryY=0;entryDx=0;entryDy=0;entryPerimeter=0;exitX=0.305;exitY=0.493;exitDx=0;exitDy=0;exitPerimeter=0;" parent="Bp7ZnbDOkuR-MJFEDAv7-1" source="Bp7ZnbDOkuR-MJFEDAv7-24" target="Bp7ZnbDOkuR-MJFEDAv7-8" edge="1">
          <mxGeometry relative="1" as="geometry" />
        </mxCell>
        <mxCell id="Bp7ZnbDOkuR-MJFEDAv7-27" value="" style="edgeStyle=orthogonalEdgeStyle;rounded=0;orthogonalLoop=1;jettySize=auto;html=1;entryX=0;entryY=0;entryDx=0;entryDy=0;entryPerimeter=0;exitX=0.52;exitY=0.867;exitDx=0;exitDy=0;exitPerimeter=0;" parent="Bp7ZnbDOkuR-MJFEDAv7-1" source="Bp7ZnbDOkuR-MJFEDAv7-24" target="Bp7ZnbDOkuR-MJFEDAv7-10" edge="1">
          <mxGeometry relative="1" as="geometry">
            <Array as="points">
              <mxPoint x="356" y="380" />
              <mxPoint x="299" y="380" />
            </Array>
          </mxGeometry>
        </mxCell>
        <mxCell id="Bp7ZnbDOkuR-MJFEDAv7-24" value="&lt;div&gt;ALB&lt;/div&gt;&lt;div&gt;&lt;br&gt;&lt;/div&gt;" style="points=[];aspect=fixed;html=1;align=center;shadow=0;dashed=0;fillColor=#FF6A00;strokeColor=none;shape=mxgraph.alibaba_cloud.alb_application_load_balancer_01;" parent="Bp7ZnbDOkuR-MJFEDAv7-1" vertex="1">
          <mxGeometry x="310" y="280" width="88.4" height="74.98" as="geometry" />
        </mxCell>
        <mxCell id="Bp7ZnbDOkuR-MJFEDAv7-30" value="&lt;div&gt;CloudFront&lt;/div&gt;&lt;div&gt;&lt;br&gt;&lt;/div&gt;" style="sketch=0;points=[[0,0,0],[0.25,0,0],[0.5,0,0],[0.75,0,0],[1,0,0],[0,1,0],[0.25,1,0],[0.5,1,0],[0.75,1,0],[1,1,0],[0,0.25,0],[0,0.5,0],[0,0.75,0],[1,0.25,0],[1,0.5,0],[1,0.75,0]];outlineConnect=0;fontColor=#232F3E;fillColor=#8C4FFF;strokeColor=#ffffff;dashed=0;verticalLabelPosition=bottom;verticalAlign=top;align=center;html=1;fontSize=12;fontStyle=0;aspect=fixed;shape=mxgraph.aws4.resourceIcon;resIcon=mxgraph.aws4.cloudfront;" parent="Bp7ZnbDOkuR-MJFEDAv7-1" vertex="1">
          <mxGeometry x="315.2" y="21" width="78" height="78" as="geometry" />
        </mxCell>
        <mxCell id="Bp7ZnbDOkuR-MJFEDAv7-32" style="edgeStyle=orthogonalEdgeStyle;rounded=0;orthogonalLoop=1;jettySize=auto;html=1;" parent="Bp7ZnbDOkuR-MJFEDAv7-1" source="Bp7ZnbDOkuR-MJFEDAv7-30" target="Bp7ZnbDOkuR-MJFEDAv7-24" edge="1">
          <mxGeometry relative="1" as="geometry">
            <mxPoint x="461.02329999999984" y="150" as="targetPoint" />
          </mxGeometry>
        </mxCell>
        <mxCell id="Bp7ZnbDOkuR-MJFEDAv7-35" value="" style="edgeStyle=orthogonalEdgeStyle;rounded=0;orthogonalLoop=1;jettySize=auto;html=1;" parent="Bp7ZnbDOkuR-MJFEDAv7-1" source="Bp7ZnbDOkuR-MJFEDAv7-33" target="Bp7ZnbDOkuR-MJFEDAv7-38" edge="1">
          <mxGeometry relative="1" as="geometry">
            <mxPoint x="190" y="70" as="targetPoint" />
          </mxGeometry>
        </mxCell>
        <mxCell id="Bp7ZnbDOkuR-MJFEDAv7-33" value="" style="shape=umlActor;verticalLabelPosition=bottom;verticalAlign=top;html=1;outlineConnect=0;" parent="Bp7ZnbDOkuR-MJFEDAv7-1" vertex="1">
          <mxGeometry x="40" y="30" width="30" height="60" as="geometry" />
        </mxCell>
        <mxCell id="Bp7ZnbDOkuR-MJFEDAv7-39" value="" style="edgeStyle=orthogonalEdgeStyle;rounded=0;orthogonalLoop=1;jettySize=auto;html=1;" parent="Bp7ZnbDOkuR-MJFEDAv7-1" source="Bp7ZnbDOkuR-MJFEDAv7-38" target="Bp7ZnbDOkuR-MJFEDAv7-30" edge="1">
          <mxGeometry relative="1" as="geometry">
            <mxPoint x="315" y="60" as="targetPoint" />
          </mxGeometry>
        </mxCell>
        <mxCell id="Bp7ZnbDOkuR-MJFEDAv7-38" value="&lt;div&gt;Route 53&lt;/div&gt;&lt;div&gt;&lt;br&gt;&lt;/div&gt;" style="sketch=0;points=[[0,0,0],[0.25,0,0],[0.5,0,0],[0.75,0,0],[1,0,0],[0,1,0],[0.25,1,0],[0.5,1,0],[0.75,1,0],[1,1,0],[0,0.25,0],[0,0.5,0],[0,0.75,0],[1,0.25,0],[1,0.5,0],[1,0.75,0]];outlineConnect=0;fontColor=#232F3E;fillColor=#8C4FFF;strokeColor=#ffffff;dashed=0;verticalLabelPosition=bottom;verticalAlign=top;align=center;html=1;fontSize=12;fontStyle=0;aspect=fixed;shape=mxgraph.aws4.resourceIcon;resIcon=mxgraph.aws4.route_53;" parent="Bp7ZnbDOkuR-MJFEDAv7-1" vertex="1">
          <mxGeometry x="160" y="21" width="78" height="78" as="geometry" />
        </mxCell>
        <mxCell id="Bp7ZnbDOkuR-MJFEDAv7-57" value="&lt;div&gt;Cert manager&lt;/div&gt;&lt;div&gt;&lt;br&gt;&lt;/div&gt;" style="outlineConnect=0;dashed=0;verticalLabelPosition=bottom;verticalAlign=top;align=center;html=1;shape=mxgraph.aws3.certificate_manager_2;fillColor=#759C3E;gradientColor=none;" parent="Bp7ZnbDOkuR-MJFEDAv7-1" vertex="1">
          <mxGeometry x="496.4999999999999" y="27" width="73.5" height="63" as="geometry" />
        </mxCell>
        <mxCell id="Bp7ZnbDOkuR-MJFEDAv7-61" value="" style="endArrow=classic;html=1;rounded=0;entryX=0;entryY=0.5;entryDx=0;entryDy=0;entryPerimeter=0;" parent="Bp7ZnbDOkuR-MJFEDAv7-1" source="Bp7ZnbDOkuR-MJFEDAv7-30" target="Bp7ZnbDOkuR-MJFEDAv7-57" edge="1">
          <mxGeometry width="50" height="50" relative="1" as="geometry">
            <mxPoint x="500" y="120" as="sourcePoint" />
            <mxPoint x="550" y="70" as="targetPoint" />
          </mxGeometry>
        </mxCell>
        <mxCell id="Bp7ZnbDOkuR-MJFEDAv7-62" value="Public Network" style="shape=mxgraph.ibm.box;prType=public;fontStyle=0;verticalAlign=top;align=left;spacingLeft=32;spacingTop=4;fillColor=none;rounded=0;whiteSpace=wrap;html=1;strokeColor=#4376BB;strokeWidth=3;dashed=0;container=1;spacing=-4;collapsible=0;expand=0;recursiveResize=0;" parent="Bp7ZnbDOkuR-MJFEDAv7-1" vertex="1">
          <mxGeometry x="140" y="190" width="430" height="180" as="geometry" />
        </mxCell>
        <mxCell id="y9LwBiDrdLK2vUnnw1kI-1" value="" style="endArrow=classic;html=1;rounded=0;entryX=0.01;entryY=0.98;entryDx=0;entryDy=0;entryPerimeter=0;" parent="Bp7ZnbDOkuR-MJFEDAv7-62" edge="1">
          <mxGeometry width="50" height="50" relative="1" as="geometry">
            <mxPoint x="239.26999999999998" y="141.26" as="sourcePoint" />
            <mxPoint x="356.5050000000001" y="-90.00000000000021" as="targetPoint" />
          </mxGeometry>
        </mxCell>
        <mxCell id="Bp7ZnbDOkuR-MJFEDAv7-64" value="Private Network" style="shape=mxgraph.ibm.box;prType=public;fontStyle=0;verticalAlign=top;align=left;spacingLeft=32;spacingTop=4;fillColor=none;rounded=0;whiteSpace=wrap;html=1;strokeColor=#4376BB;strokeWidth=3;dashed=0;container=1;spacing=-4;collapsible=0;expand=0;recursiveResize=0;" parent="Bp7ZnbDOkuR-MJFEDAv7-1" vertex="1">
          <mxGeometry x="130" y="400" width="600" height="210" as="geometry" />
        </mxCell>
        <mxCell id="Bp7ZnbDOkuR-MJFEDAv7-40" value="&lt;div&gt;MongoDB VPC endpoint&lt;br&gt;&lt;/div&gt;&lt;div&gt;&lt;br&gt;&lt;/div&gt;" style="points=[];aspect=fixed;html=1;align=center;shadow=0;dashed=0;fillColor=#FF6A00;strokeColor=none;shape=mxgraph.alibaba_cloud.privatelink;" parent="Bp7ZnbDOkuR-MJFEDAv7-64" vertex="1">
          <mxGeometry x="509.6" y="45.29999999999998" width="56.1" height="56.699999999999996" as="geometry" />
        </mxCell>
        <mxCell id="Bp7ZnbDOkuR-MJFEDAv7-67" value="" style="endArrow=classic;html=1;rounded=0;entryX=0.114;entryY=0.864;entryDx=0;entryDy=0;entryPerimeter=0;exitX=0.5;exitY=0.667;exitDx=0;exitDy=0;exitPerimeter=0;" parent="Bp7ZnbDOkuR-MJFEDAv7-64" source="Bp7ZnbDOkuR-MJFEDAv7-64" target="Bp7ZnbDOkuR-MJFEDAv7-40" edge="1">
          <mxGeometry width="50" height="50" relative="1" as="geometry">
            <mxPoint x="310" y="130" as="sourcePoint" />
            <mxPoint x="360" y="80" as="targetPoint" />
          </mxGeometry>
        </mxCell>
        <mxCell id="Bp7ZnbDOkuR-MJFEDAv7-68" value="" style="endArrow=classic;html=1;rounded=0;entryX=0.096;entryY=0.476;entryDx=0;entryDy=0;entryPerimeter=0;" parent="Bp7ZnbDOkuR-MJFEDAv7-64" target="Bp7ZnbDOkuR-MJFEDAv7-40" edge="1">
          <mxGeometry width="50" height="50" relative="1" as="geometry">
            <mxPoint x="230" y="150" as="sourcePoint" />
            <mxPoint x="280" y="80" as="targetPoint" />
          </mxGeometry>
        </mxCell>
        <mxCell id="Bp7ZnbDOkuR-MJFEDAv7-41" value="MongoDB atlas" style="dashed=0;outlineConnect=0;html=1;align=center;labelPosition=center;verticalLabelPosition=bottom;verticalAlign=top;shape=mxgraph.weblogos.mongodb" parent="1" vertex="1">
          <mxGeometry x="1379.4" y="125.80000000000001" width="41.2" height="86.2" as="geometry" />
        </mxCell>
        <mxCell id="Bp7ZnbDOkuR-MJFEDAv7-46" value="" style="edgeStyle=orthogonalEdgeStyle;rounded=0;orthogonalLoop=1;jettySize=auto;html=1;" parent="1" source="Bp7ZnbDOkuR-MJFEDAv7-40" target="Bp7ZnbDOkuR-MJFEDAv7-41" edge="1">
          <mxGeometry relative="1" as="geometry" />
        </mxCell>
        <mxCell id="TXsg3inK5glu1PFH5FyQ-6" value="&lt;div&gt;AWS Private Link&lt;/div&gt;" style="sketch=0;points=[[0,0,0],[0.25,0,0],[0.5,0,0],[0.75,0,0],[1,0,0],[0,1,0],[0.25,1,0],[0.5,1,0],[0.75,1,0],[1,1,0],[0,0.25,0],[0,0.5,0],[0,0.75,0],[1,0.25,0],[1,0.5,0],[1,0.75,0]];outlineConnect=0;fontColor=#232F3E;fillColor=#8C4FFF;strokeColor=#ffffff;dashed=0;verticalLabelPosition=bottom;verticalAlign=top;align=center;html=1;fontSize=12;fontStyle=0;aspect=fixed;shape=mxgraph.aws4.resourceIcon;resIcon=mxgraph.aws4.vpc_privatelink;" parent="1" vertex="1">
          <mxGeometry x="1060" y="134" width="78" height="78" as="geometry" />
        </mxCell>
        <mxCell id="TXsg3inK5glu1PFH5FyQ-7" value="MongoDB Atlas VPC" style="sketch=0;outlineConnect=0;gradientColor=none;html=1;whiteSpace=wrap;fontSize=12;fontStyle=0;shape=mxgraph.aws4.group;grIcon=mxgraph.aws4.group_vpc;strokeColor=#879196;fillColor=none;verticalAlign=top;align=left;spacingLeft=30;fontColor=#879196;dashed=0;" parent="1" vertex="1">
          <mxGeometry x="1220" y="-62.1" width="380" height="412.1" as="geometry" />
        </mxCell>
        <mxCell id="Bp7ZnbDOkuR-MJFEDAv7-17" value="&lt;div&gt;SQS&lt;/div&gt;&lt;div&gt;&lt;br&gt;&lt;/div&gt;" style="outlineConnect=0;dashed=0;verticalLabelPosition=bottom;verticalAlign=top;align=center;html=1;shape=mxgraph.aws3.sqs;fillColor=#D9A741;gradientColor=none;" parent="1" vertex="1">
          <mxGeometry x="1070" y="280" width="76.5" height="93" as="geometry" />
        </mxCell>
        <mxCell id="Bp7ZnbDOkuR-MJFEDAv7-51" value="&lt;div&gt;KMS&lt;/div&gt;" style="outlineConnect=0;dashed=0;verticalLabelPosition=bottom;verticalAlign=top;align=center;html=1;shape=mxgraph.aws3.kms;fillColor=#759C3E;gradientColor=none;" parent="1" vertex="1">
          <mxGeometry x="1070" y="410" width="76.5" height="93" as="geometry" />
        </mxCell>
        <mxCell id="Bp7ZnbDOkuR-MJFEDAv7-52" value="" style="endArrow=classic;startArrow=classic;html=1;rounded=0;exitX=0.5;exitY=0;exitDx=0;exitDy=0;exitPerimeter=0;" parent="1" source="Bp7ZnbDOkuR-MJFEDAv7-51" target="Bp7ZnbDOkuR-MJFEDAv7-17" edge="1">
          <mxGeometry width="50" height="50" relative="1" as="geometry">
            <mxPoint x="880" y="660" as="sourcePoint" />
            <mxPoint x="930" y="610" as="targetPoint" />
          </mxGeometry>
        </mxCell>
        <mxCell id="Bp7ZnbDOkuR-MJFEDAv7-19" value="" style="edgeStyle=orthogonalEdgeStyle;rounded=0;orthogonalLoop=1;jettySize=auto;html=1;entryX=0;entryY=0.5;entryDx=0;entryDy=0;entryPerimeter=0;" parent="1" source="Bp7ZnbDOkuR-MJFEDAv7-12" target="Bp7ZnbDOkuR-MJFEDAv7-17" edge="1">
          <mxGeometry relative="1" as="geometry">
            <mxPoint x="500" y="354.75" as="targetPoint" />
          </mxGeometry>
        </mxCell>
        <mxCell id="TXsg3inK5glu1PFH5FyQ-3" value="" style="endArrow=classic;html=1;rounded=0;exitX=0.383;exitY=0.81;exitDx=0;exitDy=0;exitPerimeter=0;" parent="1" source="Bp7ZnbDOkuR-MJFEDAv7-64" target="Bp7ZnbDOkuR-MJFEDAv7-17" edge="1">
          <mxGeometry width="50" height="50" relative="1" as="geometry">
            <mxPoint x="459.99999999999983" y="289.9699999999998" as="sourcePoint" />
            <mxPoint x="519.8" y="250" as="targetPoint" />
          </mxGeometry>
        </mxCell>
        <mxCell id="y9LwBiDrdLK2vUnnw1kI-2" value="CloudWatch logs" style="sketch=0;outlineConnect=0;fontColor=#232F3E;gradientColor=none;fillColor=#E7157B;strokeColor=none;dashed=0;verticalLabelPosition=bottom;verticalAlign=top;align=center;html=1;fontSize=12;fontStyle=0;aspect=fixed;pointerEvents=1;shape=mxgraph.aws4.cloudwatch_logs;" parent="1" vertex="1">
          <mxGeometry x="560" y="560" width="78" height="58" as="geometry" />
        </mxCell>
        <mxCell id="gBGxOEcEdofnZM4JByBB-7" value="" style="edgeStyle=orthogonalEdgeStyle;rounded=0;orthogonalLoop=1;jettySize=auto;html=1;" edge="1" parent="1" source="gBGxOEcEdofnZM4JByBB-1" target="gBGxOEcEdofnZM4JByBB-6">
          <mxGeometry relative="1" as="geometry" />
        </mxCell>
        <mxCell id="gBGxOEcEdofnZM4JByBB-1" value="&lt;div&gt;CloudWatch alarms&lt;/div&gt;" style="sketch=0;outlineConnect=0;fontColor=#232F3E;gradientColor=none;fillColor=#E7157B;strokeColor=none;dashed=0;verticalLabelPosition=bottom;verticalAlign=top;align=center;html=1;fontSize=12;fontStyle=0;aspect=fixed;pointerEvents=1;shape=mxgraph.aws4.alarm;" vertex="1" parent="1">
          <mxGeometry x="750" y="551" width="78" height="78" as="geometry" />
        </mxCell>
        <mxCell id="y9LwBiDrdLK2vUnnw1kI-3" value="" style="endArrow=classic;html=1;rounded=0;exitX=0.217;exitY=0.81;exitDx=0;exitDy=0;exitPerimeter=0;" parent="1" source="Bp7ZnbDOkuR-MJFEDAv7-64" target="y9LwBiDrdLK2vUnnw1kI-2" edge="1">
          <mxGeometry width="50" height="50" relative="1" as="geometry">
            <mxPoint x="650" y="440" as="sourcePoint" />
            <mxPoint x="700" y="390" as="targetPoint" />
          </mxGeometry>
        </mxCell>
        <mxCell id="y9LwBiDrdLK2vUnnw1kI-4" value="" style="endArrow=classic;html=1;rounded=0;exitX=0.383;exitY=0.857;exitDx=0;exitDy=0;exitPerimeter=0;" parent="1" source="Bp7ZnbDOkuR-MJFEDAv7-64" target="y9LwBiDrdLK2vUnnw1kI-2" edge="1">
          <mxGeometry width="50" height="50" relative="1" as="geometry">
            <mxPoint x="1200" y="480" as="sourcePoint" />
            <mxPoint x="1250" y="430" as="targetPoint" />
          </mxGeometry>
        </mxCell>
        <mxCell id="y9LwBiDrdLK2vUnnw1kI-6" value="" style="endArrow=classic;html=1;rounded=0;exitX=0.517;exitY=0.81;exitDx=0;exitDy=0;exitPerimeter=0;" parent="1" source="Bp7ZnbDOkuR-MJFEDAv7-64" target="y9LwBiDrdLK2vUnnw1kI-2" edge="1">
          <mxGeometry width="50" height="50" relative="1" as="geometry">
            <mxPoint x="780" y="480" as="sourcePoint" />
            <mxPoint x="830" y="430" as="targetPoint" />
          </mxGeometry>
        </mxCell>
        <mxCell id="gBGxOEcEdofnZM4JByBB-2" value="" style="endArrow=classic;html=1;rounded=0;exitX=0.517;exitY=0.81;exitDx=0;exitDy=0;exitPerimeter=0;" edge="1" parent="1" source="Bp7ZnbDOkuR-MJFEDAv7-64" target="gBGxOEcEdofnZM4JByBB-1">
          <mxGeometry width="50" height="50" relative="1" as="geometry">
            <mxPoint x="1240" y="540" as="sourcePoint" />
            <mxPoint x="1290" y="490" as="targetPoint" />
          </mxGeometry>
        </mxCell>
        <mxCell id="gBGxOEcEdofnZM4JByBB-3" value="" style="endArrow=classic;html=1;rounded=0;exitX=0.383;exitY=0.762;exitDx=0;exitDy=0;exitPerimeter=0;" edge="1" parent="1" source="Bp7ZnbDOkuR-MJFEDAv7-64" target="gBGxOEcEdofnZM4JByBB-1">
          <mxGeometry width="50" height="50" relative="1" as="geometry">
            <mxPoint x="1260" y="510" as="sourcePoint" />
            <mxPoint x="1310" y="460" as="targetPoint" />
          </mxGeometry>
        </mxCell>
        <mxCell id="gBGxOEcEdofnZM4JByBB-5" value="" style="endArrow=classic;html=1;rounded=0;exitX=0.217;exitY=0.81;exitDx=0;exitDy=0;exitPerimeter=0;" edge="1" parent="1" source="Bp7ZnbDOkuR-MJFEDAv7-64" target="gBGxOEcEdofnZM4JByBB-1">
          <mxGeometry width="50" height="50" relative="1" as="geometry">
            <mxPoint x="1160" y="510" as="sourcePoint" />
            <mxPoint x="1210" y="460" as="targetPoint" />
          </mxGeometry>
        </mxCell>
        <mxCell id="Bp7ZnbDOkuR-MJFEDAv7-53" value="ECRs" style="outlineConnect=0;dashed=0;verticalLabelPosition=bottom;verticalAlign=top;align=center;html=1;shape=mxgraph.aws3.ecr_registry;fillColor=#F58534;gradientColor=none;" parent="1" vertex="1">
          <mxGeometry x="200" y="551" width="57" height="60" as="geometry" />
        </mxCell>
        <mxCell id="Bp7ZnbDOkuR-MJFEDAv7-54" style="edgeStyle=orthogonalEdgeStyle;rounded=0;orthogonalLoop=1;jettySize=auto;html=1;" parent="1" source="Bp7ZnbDOkuR-MJFEDAv7-53" target="Bp7ZnbDOkuR-MJFEDAv7-8" edge="1">
          <mxGeometry relative="1" as="geometry" />
        </mxCell>
        <mxCell id="Bp7ZnbDOkuR-MJFEDAv7-55" style="edgeStyle=orthogonalEdgeStyle;rounded=0;orthogonalLoop=1;jettySize=auto;html=1;" parent="1" source="Bp7ZnbDOkuR-MJFEDAv7-53" target="Bp7ZnbDOkuR-MJFEDAv7-10" edge="1">
          <mxGeometry relative="1" as="geometry" />
        </mxCell>
        <mxCell id="Bp7ZnbDOkuR-MJFEDAv7-56" style="edgeStyle=orthogonalEdgeStyle;rounded=0;orthogonalLoop=1;jettySize=auto;html=1;" parent="1" source="Bp7ZnbDOkuR-MJFEDAv7-53" target="Bp7ZnbDOkuR-MJFEDAv7-12" edge="1">
          <mxGeometry relative="1" as="geometry" />
        </mxCell>
        <mxCell id="gBGxOEcEdofnZM4JByBB-9" value="" style="edgeStyle=orthogonalEdgeStyle;rounded=0;orthogonalLoop=1;jettySize=auto;html=1;" edge="1" parent="1" source="gBGxOEcEdofnZM4JByBB-6" target="gBGxOEcEdofnZM4JByBB-8">
          <mxGeometry relative="1" as="geometry" />
        </mxCell>
        <mxCell id="gBGxOEcEdofnZM4JByBB-6" value="SNS" style="sketch=0;points=[[0,0,0],[0.25,0,0],[0.5,0,0],[0.75,0,0],[1,0,0],[0,1,0],[0.25,1,0],[0.5,1,0],[0.75,1,0],[1,1,0],[0,0.25,0],[0,0.5,0],[0,0.75,0],[1,0.25,0],[1,0.5,0],[1,0.75,0]];outlineConnect=0;fontColor=#232F3E;fillColor=#E7157B;strokeColor=#ffffff;dashed=0;verticalLabelPosition=bottom;verticalAlign=top;align=center;html=1;fontSize=12;fontStyle=0;aspect=fixed;shape=mxgraph.aws4.resourceIcon;resIcon=mxgraph.aws4.sns;" vertex="1" parent="1">
          <mxGeometry x="894.5" y="551" width="78" height="78" as="geometry" />
        </mxCell>
        <mxCell id="gBGxOEcEdofnZM4JByBB-11" value="" style="edgeStyle=orthogonalEdgeStyle;rounded=0;orthogonalLoop=1;jettySize=auto;html=1;" edge="1" parent="1" source="gBGxOEcEdofnZM4JByBB-8" target="gBGxOEcEdofnZM4JByBB-10">
          <mxGeometry relative="1" as="geometry" />
        </mxCell>
        <mxCell id="gBGxOEcEdofnZM4JByBB-8" value="Chatbot" style="sketch=0;points=[[0,0,0],[0.25,0,0],[0.5,0,0],[0.75,0,0],[1,0,0],[0,1,0],[0.25,1,0],[0.5,1,0],[0.75,1,0],[1,1,0],[0,0.25,0],[0,0.5,0],[0,0.75,0],[1,0.25,0],[1,0.5,0],[1,0.75,0]];points=[[0,0,0],[0.25,0,0],[0.5,0,0],[0.75,0,0],[1,0,0],[0,1,0],[0.25,1,0],[0.5,1,0],[0.75,1,0],[1,1,0],[0,0.25,0],[0,0.5,0],[0,0.75,0],[1,0.25,0],[1,0.5,0],[1,0.75,0]];outlineConnect=0;fontColor=#232F3E;fillColor=#E7157B;strokeColor=#ffffff;dashed=0;verticalLabelPosition=bottom;verticalAlign=top;align=center;html=1;fontSize=12;fontStyle=0;aspect=fixed;shape=mxgraph.aws4.resourceIcon;resIcon=mxgraph.aws4.chatbot;" vertex="1" parent="1">
          <mxGeometry x="1034.5" y="551" width="78" height="78" as="geometry" />
        </mxCell>
        <mxCell id="gBGxOEcEdofnZM4JByBB-10" value="Slack" style="shape=image;html=1;verticalAlign=top;verticalLabelPosition=bottom;labelBackgroundColor=#ffffff;imageAspect=0;aspect=fixed;image=https://cdn2.iconfinder.com/data/icons/social-media-2285/512/1_Slack_colored_svg-128.png" vertex="1" parent="1">
          <mxGeometry x="1181.5" y="551" width="78" height="78" as="geometry" />
        </mxCell>
      </root>
    </mxGraphModel>
  </diagram>
</mxfile>
